<?xml version="1.0" encoding="UTF-8" standalone="no"?>
<svg
   xmlnsDc="http://purl.org/dc/elements/1.1/"
   xmlnsCc="http://creativecommons.org/ns#"
   xmlnsRdf="http://www.w3.org/1999/02/22-rdf-syntax-ns#"
   xmlnsSvg="http://www.w3.org/2000/svg"
   xmlns="http://www.w3.org/2000/svg"
   id="svg22"
   xmlSpace="preserve"
   viewBox="0 0 165 84"
   height="84"
   width="165"
   version="1.1"><metadata
     id="metadata26"><rdf:RDF><cc:Work
         rdf:about=""><dc:format>image/svg+xml</dc:format><dc:type
           rdf:resource="http://purl.org/dc/dcmitype/StillImage" /></cc:Work></rdf:RDF></metadata><desc
     id="desc2">Created with Fabric.js 2.4.6</desc><defs
     id="defs4" /><g
     id="g14"
     transform="translate(109.17,43.38)"><g
       id="text12"
       style="font-style:normal;font-weight:normal;font-size:24px;font-family:Oswald;white-space:pre;opacity:1;fill:#000000;fill-rule:nonzero;stroke:none;stroke-width:1;stroke-linecap:butt;stroke-linejoin:miter;stroke-miterlimit:4;stroke-dasharray:none;stroke-dashoffset:0"
       ariaLabel="HUSTONINSURANCEAGENCY, INC"><path
         id="path28"
         style=""
         d="m -54.157998,-19.58 v -19.44 h 2.712 v 8.4 h 4.992 v -8.4 h 2.712 v 19.44 h -2.712 v -9.096 h -4.992 v 9.096 z" /><path
         id="path30"
         style=""
         d="m -35.688873,-19.364 q -2.112,0 -3.24,-0.84 -1.128,-0.84 -1.536,-2.352 -0.408,-1.536 -0.408,-3.576 V -39.02 h 2.592 v 13.008 q 0,1.248 0.168,2.28 0.168,1.032 0.72,1.632 0.576,0.6 1.704,0.6 1.152,0 1.704,-0.6 0.552,-0.6 0.72,-1.632 0.168,-1.032 0.168,-2.28 V -39.02 h 2.568 v 12.888 q 0,2.04 -0.408,3.576 -0.408,1.512 -1.536,2.352 -1.104,0.84 -3.216,0.84 z" /><path
         id="path32"
         style=""
         d="m -23.089623,-19.364 q -1.68,0 -2.808,-0.72 -1.104,-0.72 -1.68,-1.992 -0.576,-1.272 -0.672,-2.952 l 2.4,-0.648 q 0.072,1.032 0.312,1.992 0.264,0.96 0.84,1.584 0.576,0.6 1.608,0.6 2.136,0 2.136,-2.28 0,-1.32 -0.6,-2.112 -0.6,-0.816 -1.512,-1.632 l -3.264,-2.88 q -0.96,-0.84 -1.416,-1.824 -0.456,-1.008 -0.456,-2.472 0,-2.136 1.224,-3.312 1.224,-1.176 3.336,-1.176 2.328,0 3.48,1.224 1.176,1.224 1.416,3.792 l -2.304,0.624 q -0.072,-0.96 -0.288,-1.752 -0.216,-0.816 -0.768,-1.296 -0.528,-0.504 -1.536,-0.504 -1.008,0 -1.584,0.552 -0.552,0.528 -0.552,1.584 0,0.888 0.288,1.464 0.312,0.576 0.984,1.176 l 3.288,2.88 q 1.104,0.96 1.944,2.304 0.84,1.32 0.84,3.144 0,1.44 -0.6,2.496 -0.6,1.032 -1.656,1.584 -1.032,0.552 -2.4,0.552 z" /><path
         id="path34"
         style=""
         d="m -14.193873,-19.58 v -17.424 h -3.288 v -2.016 h 9.1919998 v 2.016 h -3.1919998 v 17.424 z" /><path
         id="path36"
         style=""
         d="m -1.5649982,-19.364 q -1.968,0 -3.144,-0.768 -1.176,-0.768 -1.68,-2.184 -0.504,-1.44 -0.504,-3.36 v -7.368 q 0,-1.92 0.504,-3.288 0.528,-1.392 1.68,-2.112 1.176,-0.744 3.144,-0.744 1.96800003,0 3.12,0.744 1.152,0.744 1.656,2.112 0.528,1.368 0.528,3.288 v 7.392 q 0,1.896 -0.528,3.312 -0.504,1.416 -1.656,2.208 -1.15199997,0.768 -3.12,0.768 z m 0,-2.136 q 1.08000003,0 1.63200003,-0.432 0.552,-0.456 0.744,-1.248 0.19199997,-0.816 0.19199997,-1.896 v -8.52 q 0,-1.08 -0.19199997,-1.848 -0.192,-0.792 -0.744,-1.2 -0.552,-0.432 -1.63200003,-0.432 -1.08,0 -1.656,0.432 -0.552,0.408 -0.744,1.2 -0.192,0.768 -0.192,1.848 v 8.52 q 0,1.08 0.192,1.896 0.192,0.792 0.744,1.248 0.576,0.432 1.656,0.432 z" /><path
         id="path38"
         style=""
         d="m 6.4045018,-19.58 v -19.44 h 1.848 l 5.5200002,12.912 V -39.02 h 2.256 v 19.44 h -1.728 L 8.7085018,-32.852 v 13.272 z" /><path
         id="path40"
         style=""
         d="m -54.013998,7.539999 v -19.44 h 2.664 v 19.44 z" /><path
         id="path42"
         style=""
         d="m -48.204873,7.539999 v -19.44 h 1.848 l 5.52,12.912 v -12.912 h 2.256 v 19.44 h -1.728 l -5.592,-13.272 v 13.272 z" /><path
         id="path44"
         style=""
         d="m -30.964623,7.755999 q -1.68,0 -2.808,-0.72 -1.104,-0.72 -1.68,-1.992 -0.576,-1.272 -0.672,-2.952 l 2.4,-0.648 q 0.072,1.032 0.312,1.992 0.264,0.96 0.84,1.584 0.576,0.6 1.608,0.6 2.136,0 2.136,-2.28 0,-1.32 -0.6,-2.112 -0.6,-0.81599999 -1.512,-1.63199999 l -3.264,-2.88000001 q -0.96,-0.84 -1.416,-1.824 -0.456,-1.008 -0.456,-2.472 0,-2.136 1.224,-3.312 1.224,-1.176 3.336,-1.176 2.328,0 3.48,1.224 1.176,1.224 1.416,3.792 l -2.304,0.624 q -0.072,-0.96 -0.288,-1.752 -0.216,-0.816 -0.768,-1.296 -0.528,-0.504 -1.536,-0.504 -1.008,0 -1.584,0.552 -0.552,0.528 -0.552,1.584 0,0.888 0.288,1.464 0.312,0.576 0.984,1.176 l 3.288,2.88 q 1.104,0.96 1.944,2.30400001 0.84,1.31999999 0.84,3.14399999 0,1.44 -0.6,2.496 -0.6,1.032 -1.656,1.584 -1.032,0.552 -2.4,0.552 z" /><path
         id="path46"
         style=""
         d="m -19.188873,7.755999 q -2.112,0 -3.24,-0.84 -1.128,-0.84 -1.536,-2.352 -0.408,-1.536 -0.408,-3.57599999 V -11.900001 h 2.592 v 13.008 q 0,1.248 0.168,2.28 0.168,1.032 0.72,1.632 0.576,0.6 1.704,0.6 1.152,0 1.704,-0.6 0.552,-0.6 0.72,-1.632 0.168,-1.032 0.168,-2.28 v -13.008 h 2.568 V 0.98799901 q 0,2.03999999 -0.408,3.57599999 -0.408,1.512 -1.536,2.352 -1.104,0.84 -3.216,0.84 z" /><path
         id="path48"
         style=""
         d="m -11.173623,7.539999 v -19.44 h 3.9119998 q 2.928,0 4.32,1.2 1.392,1.176 1.392,3.96 0,1.704 -0.552,2.904 -0.552,1.2 -1.848,1.632 l 2.76,9.744 h -2.616 l -2.544,-9.12 h -2.112 v 9.12 z m 2.7119998,-11.064 h 1.032 q 1.704,0 2.472,-0.672 0.792,-0.672 0.792,-2.544 0,-1.704 -0.624,-2.448 -0.624,-0.768 -2.472,-0.768 h -1.2 z" /><path
         id="path50"
         style=""
         d="m 0.23912683,7.539999 4.12799997,-19.44 h 2.616 l 4.1520002,19.44 H 8.5671268 l -0.888,-4.896 h -3.96 l -0.936,4.896 z M 4.0791268,0.69999901 h 3.24 l -1.632,-8.76000001 z" /><path
         id="path52"
         style=""
         d="m 13.107627,7.539999 v -19.44 h 1.848 l 5.52,12.912 v -12.912 h 2.256 v 19.44 h -1.728 l -5.592,-13.272 v 13.272 z" /><path
         id="path54"
         style=""
         d="m 30.635877,7.755999 q -2.064,0 -3.216,-0.864 -1.128,-0.864 -1.584,-2.328 -0.432,-1.464 -0.432,-3.264 v -6.864 q 0,-1.968 0.432,-3.432 0.456,-1.464 1.584,-2.256 1.152,-0.816 3.216,-0.816 2.712,0 3.792,1.488 1.104,1.464 1.104,4.104 v 1.536 h -2.568 v -1.368 q 0,-1.08 -0.12,-1.896 -0.096,-0.84 -0.576,-1.296 -0.48,-0.456 -1.608,-0.456 -1.152,0 -1.68,0.504 -0.528,0.48 -0.696,1.392 -0.144,0.888 -0.144,2.088 v 7.704 q 0,2.184 0.552,3.048 0.576,0.84 1.968,0.84 1.104,0 1.584,-0.48 0.48,-0.504 0.6,-1.368 0.12,-0.864 0.12,-2.016 V 0.31599901 h 2.568 V 1.755999 q 0,1.776 -0.432,3.144 -0.432,1.344 -1.488,2.112 -1.056,0.744 -2.976,0.744 z" /><path
         id="path56"
         style=""
         d="m 38.138877,7.539999 v -19.44 h 7.536 v 2.016 h -4.824 v 6.432 h 3.912 v 1.92 h -3.912 v 7.128 h 4.872 v 1.944 z" /><path
         id="path58"
         style=""
         d="m -55.213998,34.659998 4.128,-19.44 h 2.616 l 4.152,19.44 h -2.568 l -0.888,-4.896 h -3.96 l -0.936,4.896 z m 3.84,-6.84 h 3.24 l -1.632,-8.76 z" /><path
         id="path60"
         style=""
         d="m -37.854123,34.899998 q -2.736,0 -3.864,-1.728 -1.128,-1.752 -1.128,-4.896 v -6.504 q 0,-2.136 0.432,-3.624 0.456,-1.512 1.584,-2.304 1.152,-0.792 3.192,-0.792 2.736,0 3.888,1.392 1.176,1.392 1.176,4.272 v 0.72 h -2.544 v -0.6 q 0,-1.272 -0.168,-2.064 -0.168,-0.816 -0.696,-1.2 -0.504,-0.408 -1.608,-0.408 -1.2,0 -1.752,0.552 -0.528,0.552 -0.672,1.512 -0.12,0.936 -0.12,2.136 v 7.2 q 0,2.112 0.504,3.144 0.504,1.032 2.112,1.032 1.584,0 2.112,-1.128 0.528,-1.128 0.528,-3.312 v -1.344 h -2.472 v -1.92 h 4.92 v 9.624 h -1.704 l -0.264,-2.232 q -0.384,1.08 -1.2,1.776 -0.816,0.696 -2.256,0.696 z" /><path
         id="path62"
         style=""
         d="m -29.642373,34.659998 v -19.44 h 7.536 v 2.016 h -4.824 v 6.432 h 3.912 v 1.92 h -3.912 v 7.128 h 4.872 v 1.944 z" /><path
         id="path64"
         style=""
         d="m -19.892373,34.659998 v -19.44 h 1.848 l 5.52,12.912 v -12.912 h 2.256 v 19.44 h -1.728 l -5.592,-13.272 v 13.272 z" /><path
         id="path66"
         style=""
         d="m -2.3641232,34.875998 q -2.064,0 -3.216,-0.864 -1.128,-0.864 -1.584,-2.328 -0.432,-1.464 -0.432,-3.264 v -6.864 q 0,-1.968 0.432,-3.432 0.456,-1.464 1.584,-2.256 1.152,-0.816 3.216,-0.816 2.71200003,0 3.792,1.488 1.104,1.464 1.104,4.104 v 1.536 h -2.56799997 v -1.368 q 0,-1.08 -0.12,-1.896 -0.096,-0.84 -0.576,-1.296 -0.48000003,-0.456 -1.60800003,-0.456 -1.152,0 -1.68,0.504 -0.528,0.48 -0.696,1.392 -0.144,0.888 -0.144,2.088 v 7.704 q 0,2.184 0.552,3.048 0.576,0.84 1.968,0.84 1.104,0 1.58400003,-0.48 0.48,-0.504 0.6,-1.368 0.12,-0.864 0.12,-2.016 v -1.44 H 2.5318768 v 1.44 q 0,1.776 -0.432,3.144 -0.432,1.344 -1.48799997,2.112 -1.056,0.744 -2.97600003,0.744 z" /><path
         id="path68"
         style=""
         d="m 8.0680018,34.659998 v -6.864 l -4.2,-12.576 h 2.52 l 2.976,9.384 2.9280002,-9.384 h 2.544 l -4.176,12.576 v 6.864 z" /><path
         id="path70"
         style=""
         d="m 14.885502,37.803998 -0.408,-1.104 q 0.648,-0.216 1.008,-0.768 0.384,-0.528 0.384,-1.272 h -1.368 v -2.76 h 2.64 v 2.712 q 0,1.272 -0.552,2.016 -0.552,0.768 -1.704,1.176 z" /><path
         id="path72"
         style=""
         d="m 25.157877,34.659998 v -19.44 h 2.664 v 19.44 z" /><path
         id="path74"
         style=""
         d="m 30.967002,34.659998 v -19.44 h 1.848 l 5.52,12.912 v -12.912 h 2.256 v 19.44 h -1.728 l -5.592,-13.272 v 13.272 z" /><path
         id="path76"
         style=""
         d="m 48.495252,34.875998 q -2.064,0 -3.216,-0.864 -1.128,-0.864 -1.584,-2.328 -0.432,-1.464 -0.432,-3.264 v -6.864 q 0,-1.968 0.432,-3.432 0.456,-1.464 1.584,-2.256 1.152,-0.816 3.216,-0.816 2.712,0 3.792,1.488 1.104,1.464 1.104,4.104 v 1.536 h -2.568 v -1.368 q 0,-1.08 -0.12,-1.896 -0.096,-0.84 -0.576,-1.296 -0.48,-0.456 -1.608,-0.456 -1.152,0 -1.68,0.504 -0.528,0.48 -0.696,1.392 -0.144,0.888 -0.144,2.088 v 7.704 q 0,2.184 0.552,3.048 0.576,0.84 1.968,0.84 1.104,0 1.584,-0.48 0.48,-0.504 0.6,-1.368 0.12,-0.864 0.12,-2.016 v -1.44 h 2.568 v 1.44 q 0,1.776 -0.432,3.144 -0.432,1.344 -1.488,2.112 -1.056,0.744 -2.976,0.744 z" /></g></g><g
     id="g20"
     transform="translate(24.21,49.96)"><g
       id="text18"
       style="font-style:normal;font-weight:normal;font-size:96px;font-family:Oswald;white-space:pre;opacity:1;fill:#000000;fill-rule:nonzero;stroke:none;stroke-width:1;stroke-linecap:butt;stroke-linejoin:miter;stroke-miterlimit:4;stroke-dasharray:none;stroke-dashoffset:0"
       ariaLabel="H"><path
         id="path79"
         style=""
         d="M -20.882,30.16 V -47.6 h 10.848 V -14 H 9.9339997 V -47.6 H 20.782 V 30.16 H 9.9339997 V -6.2240002 H -10.034 V 30.16 Z" /></g></g></svg>